PathFileType	4	(X/Y/Z)	C:/Users/opensim2020/Desktop/walking_exp_matlab/subject02_walking04_straight_01.trc	
DataRate	CameraRate	NumFrames	NumMarkers	Units	OrigDataRate	OrigDataStartFrame	OrigNumFrames	
100.00	100.00	7	42	mm	100.00	802	302	
Frame#	Time	LFHD			RFHD			LBHD			RBHD			C7			T10			CLAV			STRN			RBAK			LSHO			LUPA			LELB			LFRM			LWRA			LWRB			LFIN			RSHO			RUPA			RELB			RFRM			RWRA			RWRB			RFIN			LASI			RASI			LPSI			RPSI			LTHI			LKNE			LTIB			LANK			LHEE			LTOE			RTHI			RKNE			RTIB			RANK			RHEE			RTOE			*39			*40			*41			
		X1	Y1	Z1	X2	Y2	Z2	X3	Y3	Z3	X4	Y4	Z4	X5	Y5	Z5	X6	Y6	Z6	X7	Y7	Z7	X8	Y8	Z8	X9	Y9	Z9	X10	Y10	Z10	X11	Y11	Z11	X12	Y12	Z12	X13	Y13	Z13	X14	Y14	Z14	X15	Y15	Z15	X16	Y16	Z16	X17	Y17	Z17	X18	Y18	Z18	X19	Y19	Z19	X20	Y20	Z20	X21	Y21	Z21	X22	Y22	Z22	X23	Y23	Z23	X24	Y24	Z24	X25	Y25	Z25	X26	Y26	Z26	X27	Y27	Z27	X28	Y28	Z28	X29	Y29	Z29	X30	Y30	Z30	X31	Y31	Z31	X32	Y32	Z32	X33	Y33	Z33	X34	Y34	Z34	X35	Y35	Z35	X36	Y36	Z36	X37	Y37	Z37	X38	Y38	Z38	X39	Y39	Z39	X40	Y40	Z40	X41	Y41	Z41	X42	Y42	Z42	

76	0.750	-995.86121	-977.21039	1737.68311	-850.07068	-982.40906	1716.37598	-1010.25934	-1096.39685	1646.39355	-870.83136	-1113.39771	1620.96265	-936.77063	-1145.83496	1519.74341	-931.96790	-1229.18384	1253.83130	-950.27399	-1012.21686	1438.21118	-938.15216	-980.12805	1261.72778	-865.81238	-1216.35095	1357.07654	-1119.42578	-1073.54773	1484.10901	-1204.72473	-1126.44666	1294.41077	-1219.20374	-1165.43823	1158.89746	-1239.07483	-1184.64221	1027.64771	-1215.74475	-1152.29675	892.96021	-1245.07104	-1199.66589	905.26648	-1252.46265	-1191.76587	839.49963	-754.42847	-1054.83215	1481.83972	-661.31940	-1058.13855	1292.37170	-644.76202	-1018.68231	1148.74329	-636.82001	-958.10382	1043.30115	-668.80792	-878.23541	937.86499	-633.39221	-918.74414	918.51068	-635.71741	-861.85376	874.05096	-1061.91943	-1004.94641	981.64404	-804.52496	-1021.12183	959.34869	-993.09100	-1218.92285	1027.41833	-878.94147	-1229.37061	1025.72229	-1149.84375	-1022.81653	682.56952	-1125.54138	-988.41534	483.84692	-1135.07129	-970.68170	291.45999	-1132.71924	-873.09979	86.29697	-1077.26758	-887.53223	52.77861	-1162.13708	-714.98407	84.76350	-764.49054	-1145.92004	660.14020	-812.09875	-1185.59729	454.01700	-812.01886	-1263.51526	282.15375	-856.75696	-1315.14539	95.45038	-915.27252	-1355.23486	44.41153	-836.43378	-1170.70325	29.48849	-908.79364	-1090.49475	1785.91956	-3357.53491	2845.70874	1033.90698			 
77	0.760	-997.25281	-969.95087	1736.77246	-852.06628	-974.94659	1715.42151	-1011.79004	-1089.00024	1644.83289	-872.34296	-1105.37134	1619.26428	-938.54395	-1138.15186	1518.45557	-934.03900	-1221.11707	1252.45984	-951.75476	-1004.35083	1437.00342	-939.44458	-972.14307	1260.55042	-867.85571	-1209.29504	1356.24475	-1121.12817	-1065.27869	1482.85913	-1206.28113	-1117.76978	1292.92102	-1220.43762	-1156.88208	1157.36499	-1240.38782	-1176.49976	1026.35889	-1216.54541	-1145.01624	891.48621	-1246.00110	-1192.06006	903.73486	-1253.46338	-1184.63806	838.06732	-755.92999	-1047.66614	1480.62512	-662.98297	-1050.76221	1290.93811	-646.38281	-1011.73206	1147.27991	-638.66132	-951.17999	1041.74023	-670.05188	-871.41656	936.32355	-634.81030	-912.12604	917.00116	-636.77344	-855.37946	872.50342	-1062.68652	-996.10205	980.08679	-805.23724	-1013.38916	958.49512	-994.86951	-1210.53857	1025.97925	-880.86066	-1221.26050	1024.44995	-1150.26550	-1012.44873	681.32446	-1126.35474	-977.49609	483.09216	-1136.68262	-958.98285	291.06531	-1134.34863	-860.40369	86.20005	-1079.31396	-875.06451	51.89277	-1162.21338	-702.05640	86.04354	-764.99310	-1140.31018	659.86774	-812.27179	-1181.33643	453.90054	-812.01019	-1261.25781	282.91107	-856.59766	-1314.63367	96.42613	-915.02173	-1355.28369	45.86415	-836.34686	-1170.85083	29.42170	-910.50562	-1083.71924	1784.60535	-3357.33203	2845.77637	1033.85034			 
78	0.770	-999.13953	-963.03839	1735.99146	-853.78577	-967.69098	1714.60681	-1014.11688	-1077.65466	1642.17468	-873.64972	-1098.25208	1617.88818	-940.47131	-1130.32581	1517.09692	-936.12866	-1212.97424	1251.12122	-953.47992	-996.26678	1435.84253	-941.02130	-963.99152	1259.42664	-870.13782	-1200.88245	1354.44458	-1122.93860	-1056.88379	1481.55505	-1208.01636	-1109.07104	1291.45386	-1221.78772	-1148.46887	1156.13293	-1241.41223	-1168.41870	1025.11731	-1217.40051	-1137.47473	890.09619	-1247.30518	-1184.32483	902.58698	-1254.09705	-1177.31860	836.44055	-757.59131	-1040.21729	1479.31738	-664.99915	-1043.87878	1289.47937	-648.14478	-1004.85803	1145.78723	-640.38660	-945.18738	1040.00867	-671.40979	-865.01849	934.58997	-636.30908	-905.77081	915.31085	-638.10504	-849.18530	870.75311	-1063.75793	-987.17688	978.52881	-806.22717	-1005.25641	957.59052	-996.76392	-1201.94006	1024.52979	-882.68164	-1213.09192	1023.26691	-1150.97278	-1001.45990	680.38727	-1127.46118	-966.15479	482.61496	-1138.46826	-947.53778	290.57684	-1135.28479	-849.52643	85.53221	-1080.36780	-864.75714	51.06219	-1162.09753	-691.18402	85.94145	-765.54327	-1134.31604	659.52936	-812.28619	-1177.22534	453.90680	-812.07770	-1258.92322	283.69000	-856.31171	-1314.12073	97.58438	-914.57977	-1355.18274	47.63087	-836.09625	-1170.65308	29.33233	-912.35767	-1077.04138	1782.91150	-3360.13232	2845.13403	1033.70459			 
79	0.780	-1001.27393	-955.77136	1735.09692	-855.63440	-960.37445	1713.90137	-1015.26056	-1073.92236	1641.80444	-875.69055	-1089.69885	1616.19397	-942.51025	-1122.38220	1515.76892	-938.18549	-1204.72058	1249.81189	-955.27631	-988.12836	1434.74658	-942.63184	-955.80463	1258.29993	-872.41382	-1192.99207	1353.35254	-1124.88110	-1048.45544	1480.32605	-1209.83142	-1100.38733	1290.01306	-1222.49829	-1142.68982	1156.11621	-1242.58545	-1160.02881	1023.81165	-1218.44165	-1129.65967	888.52191	-1248.67944	-1176.24561	901.16663	-1255.16077	-1169.56348	835.05054	-759.41412	-1032.72180	1478.02649	-666.91168	-1037.11475	1288.10962	-650.03485	-998.02783	1144.36560	-642.65063	-937.81476	1038.36340	-673.09406	-858.77686	932.94971	-637.88947	-899.73181	913.58765	-639.46680	-843.26550	868.90448	-1065.16797	-978.14771	977.00323	-807.36407	-996.96899	956.59692	-998.47186	-1193.31738	1023.17749	-884.45508	-1204.71875	1022.06854	-1151.89075	-989.94934	679.87830	-1128.73779	-954.55530	482.27579	-1140.20605	-936.71722	290.09344	-1135.76526	-840.28394	84.46339	-1080.87207	-855.98120	49.84011	-1161.79749	-681.97766	84.62426	-766.21082	-1128.06689	659.27930	-812.56311	-1173.00659	454.00842	-812.11206	-1256.35132	284.55963	-856.30475	-1313.45886	98.62152	-914.28754	-1354.86035	49.16314	-836.05255	-1170.53552	29.26960	-914.19043	-1070.10291	1781.45227	-3357.59497	2845.95264	1033.69751			 
80	0.790	-1002.86255	-948.78131	1734.39880	-857.58936	-953.07117	1713.17554	-1017.79987	-1062.27612	1639.12061	-877.24500	-1082.49744	1614.79871	-944.74103	-1114.07678	1514.41541	-940.31219	-1196.30383	1248.57214	-957.21552	-979.89734	1433.59387	-944.56830	-947.45905	1257.28491	-874.74976	-1185.06396	1352.12976	-1126.89319	-1040.05896	1479.07056	-1211.78027	-1091.55127	1288.54199	-1225.06140	-1130.62415	1153.03589	-1244.14478	-1151.10510	1022.15088	-1219.62976	-1121.43860	887.04242	-1250.25317	-1167.78125	899.76526	-1256.37854	-1161.40576	833.54596	-761.29480	-1024.98474	1476.71838	-669.11517	-1030.03247	1286.60522	-652.05994	-991.22052	1142.92444	-643.52081	-932.25421	1036.99475	-674.49615	-852.88818	930.78650	-639.57983	-893.92010	911.77026	-641.18683	-837.87579	866.89105	-1066.93579	-968.96802	975.68866	-808.67963	-988.42175	955.64307	-1000.16852	-1184.57654	1021.83026	-886.21466	-1196.14307	1020.85834	-1153.18408	-978.08362	679.58008	-1130.05615	-942.95465	481.90729	-1141.63452	-926.64355	289.48196	-1135.97717	-832.44202	83.04831	-1081.40149	-848.69324	48.45438	-1161.15833	-674.32501	82.29576	-766.89325	-1121.67224	658.84650	-812.78180	-1167.88403	453.67358	-812.32251	-1253.53210	285.35757	-855.98181	-1312.67139	100.06603	-913.92633	-1354.65479	51.12054	-835.85443	-1170.45068	29.24035	-916.23981	-1063.25793	1780.12988	-3357.30737	2845.75562	1033.92627			 
81	0.800	-1005.29388	-941.66064	1733.76367	-859.91168	-945.63062	1712.57983	-1019.18805	-1058.53455	1638.98047	-879.43243	-1074.08716	1613.38110	-946.84314	-1106.16479	1513.37158	-942.39899	-1187.78796	1247.36438	-959.31201	-971.58038	1432.61060	-946.58118	-939.04932	1256.30359	-876.96191	-1177.41431	1351.25134	-1129.13342	-1031.59863	1477.89502	-1213.31360	-1082.36414	1286.91980	-1226.82397	-1122.36267	1151.81567	-1246.04333	-1142.25610	1020.85980	-1220.96387	-1112.92566	885.52020	-1251.93811	-1158.99646	898.39386	-1257.71509	-1152.90417	832.02118	-763.31824	-1017.38873	1475.73901	-671.51422	-1023.23859	1285.16138	-654.18530	-984.55969	1141.53918	-645.89325	-925.68268	1035.01733	-676.20404	-847.28412	928.58649	-641.35474	-888.43970	909.92938	-642.47162	-832.41833	864.77979	-1068.82861	-959.78778	974.39557	-810.24487	-979.58417	954.67725	-1001.85168	-1175.69946	1020.49323	-887.97345	-1187.31982	1019.60211	-1154.70349	-966.17297	679.43829	-1131.33142	-931.53754	481.42990	-1142.85400	-917.37500	288.73138	-1136.08118	-825.82111	81.35271	-1081.50891	-842.72961	46.47663	-1160.05530	-667.65942	79.44899	-767.63483	-1115.09082	658.64209	-812.96350	-1162.66443	453.79324	-812.50470	-1250.56409	286.39761	-855.62317	-1311.91125	101.70483	-913.66742	-1354.02515	53.04847	-835.76752	-1170.40259	29.16241	-918.47144	-1056.44409	1778.73938	-3360.16431	2845.18188	1033.80896			 
82	0.810	-1008.93903	-935.25739	1733.34229	-862.22278	-938.17657	1712.11133	-1021.32629	-1050.88391	1637.56812	-881.47729	-1065.95959	1611.82837	-949.14502	-1098.25391	1512.46594	-944.50446	-1179.13696	1246.23828	-961.51355	-963.16498	1431.71729	-948.75946	-930.41888	1255.46777	-879.38788	-1168.65515	1349.72363	-1131.45203	-1023.49915	1476.95520	-1215.96912	-1073.78748	1285.82214	-1228.72644	-1113.31824	1150.58948	-1247.88538	-1133.06482	1019.36609	-1222.48157	-1104.05847	884.11749	-1253.71814	-1149.90063	897.03961	-1258.74146	-1143.87439	830.36328	-765.34821	-1008.98303	1474.49463	-673.90045	-1015.92969	1283.85681	-656.45178	-977.92950	1140.18738	-647.94940	-919.70850	1033.36401	-677.94415	-841.84479	926.46283	-643.21893	-883.22412	908.07562	-644.11963	-827.45410	862.61414	-1071.21240	-950.29858	973.42383	-811.90436	-970.71045	953.65045	-1003.49609	-1166.73694	1019.26331	-889.78296	-1178.19604	1018.31018	-1156.27612	-954.35516	679.30188	-1132.67444	-920.45532	480.91861	-1143.75977	-908.82166	287.88882	-1135.89221	-820.16473	79.28533	-1081.62256	-837.89520	44.46105	-1158.69641	-662.15558	76.23869	-768.51056	-1108.30859	658.56769	-813.09375	-1157.39758	453.99670	-812.70319	-1247.19751	287.54041	-855.36957	-1310.87341	103.44106	-913.30939	-1353.43311	55.40799	-835.53375	-1170.33655	29.17289	-920.84222	-1049.69763	1777.21448	-3357.20068	2846.02856	1033.85022			 
